# xmcd
#
# Track frame offsets:
#	150
#	16801
#	31952
#	44119
#	65120
#	80636
#	98112
#	115888
#	128193
#
# Disc length: 1927 seconds
#
# Revision: 0
# Processed by: cddbd v1.5.2PL0 Copyright (c) Steve Scherf et al.
# Submitted via: audiograbber 1.83.01
#
DISCID=7a078509
DTITLE=Hank Williams, Jr. - Hank Williams, Jr. and Friends
DYEAR=1976
DGENRE=Country
TTITLE0=Losin' You
TTITLE1=On Susan's Floor
TTITLE2=I Really Did
TTITLE3=Can't You See
TTITLE4=Montana Song
TTITLE5=Clovis, New Mexico
TTITLE6=Brothers Of The Road
TTITLE7=Stoned At The Jukebox
TTITLE8=Living Proof
EXTD=
EXTT0=
EXTT1=
EXTT2=
EXTT3=
EXTT4=
EXTT5=
EXTT6=
EXTT7=
EXTT8=
PLAYORDER=
